<svg width="1440" height="818" viewBox="0 0 1440 818" fill="none" xmlns="http://www.w3.org/2000/svg">
<path d="M1150.5 444.69C1033.84 448.123 964.5 498.19 834.5 560.19C654.021 646.264 555.602 594.119 464 546.949C409.53 518.901 357.47 492.612 292 498.19C128.822 512.093 76.481 595.603 0 610.806V459.5C26.0354 465.144 48 460 48 460C124.481 444.797 180.5 360.116 340 346.5C405.469 340.911 458.53 366.451 513 394.5C604.602 441.67 701.021 494.575 881.5 408.5C1011.5 346.5 1080.84 294.434 1197.5 291C1284.56 288.438 1365.88 377.368 1440 540V818C1352.87 586.248 1256.71 441.564 1150.5 444.69Z" fill="#2EB7FA"/>
<path d="M884.5 409.19C596.702 546.447 517.573 332.231 342 347.19C146.107 363.88 109.948 480.887 0 459.602V268.21C44.5289 238.676 100.095 208.404 187 201C362.573 186.041 440.202 402.758 728 265.5C858 203.5 1034.25 134.667 1150.5 145C1240.5 153 1328 157 1440 310V546.319C1366.44 386.376 1286.73 291.152 1200.5 293.69C1083.84 297.123 1014.5 347.19 884.5 409.19Z" fill="#1CB0FC"/>
<path d="M736.5 273.5C448.702 410.758 369.573 196.541 194 211.5C102.412 219.303 45.6205 249.225 0 276.5V125.037C3.24975 123.754 6.55686 122.431 9.9223 121.067C398.997 -36.6011 280 223 717.559 121.067C1149.24 20.5037 1193.03 266.347 1440 126.975V311.322C1329.47 180.025 1197.2 132.171 1048.5 172C935.764 202.196 866.5 211.5 736.5 273.5Z" fill="#0EADFE"/>
<path d="M717.559 128.921C280 237.467 398.997 -38.9756 9.9223 128.921C6.55686 130.374 3.24975 131.782 0 133.148V0H1440V135.212C1193.03 283.626 1149.24 21.8338 717.559 128.921Z" fill="#00A6FF"/>
</svg>
